<svg xmlns="http://www.w3.org/2000/svg" version="1.1" xmlns:xlink="http://www.w3.org/1999/xlink" xmlns:svgjs="http://svgjs.dev/svgjs" width="128" height="128" viewBox="0 0 128 128"><g transform="matrix(0.8046875,0,0,0.8046875,12.760752631578946,18.6693539505646)"><svg viewBox="0 0 95 84" data-background-color="#8dbdff" preserveAspectRatio="xMidYMid meet" height="113" width="128" xmlns="http://www.w3.org/2000/svg" xmlns:xlink="http://www.w3.org/1999/xlink"><g id="tight-bounds" transform="matrix(1,0,0,1,-0.24049999999999727,-0.12397058823529505)"><svg viewBox="0 0 95.481 84.24794117647059" height="84.24794117647059" width="95.481"><g><svg viewBox="0 0 95.481 84.24794117647059" height="84.24794117647059" width="95.481"><g><svg viewBox="0 0 95.481 84.24794117647059" height="84.24794117647059" width="95.481"><g id="textblocktransform"><svg viewBox="0 0 95.481 84.24794117647059" height="84.24794117647059" width="95.481" id="textblock"><g><svg viewBox="0 0 95.481 84.24794117647059" height="84.24794117647059" width="95.481"><g><svg viewBox="0 0 95.481 84.24794117647059" height="84.24794117647059" width="95.481"><g><svg xmlns="http://www.w3.org/2000/svg" viewBox="0 0 68 60" x="0" y="0" height="84.24794117647059" width="95.481" class="icon-icon-0" data-fill-palette-color="accent" id="icon-0"><path fill="#312e81" fill-rule="evenodd" d="M100 562L100 596.005C100 598.211 98.207 600 95.998 600L60.002 600C57.792 600 56 598.218 56 596.005L56 562 100 562ZM64 570.009L64 571.991C64 572.557 64.446 573 64.997 573L91.003 573C91.56 573 92 572.548 92 571.991L92 570.009C92 569.443 91.554 569 91.003 569L64.997 569C64.44 569 64 569.452 64 570.009ZM64 580.009L64 581.991C64 582.557 64.446 583 64.997 583L91.003 583C91.56 583 92 582.548 92 581.991L92 580.009C92 579.443 91.554 579 91.003 579L64.997 579C64.44 579 64 579.452 64 580.009ZM64 590.009L64 591.991C64 592.557 64.451 593 65.007 593L77.993 593C78.551 593 79 592.548 79 591.991L79 590.009C79 589.443 78.549 589 77.993 589L65.007 589C64.449 589 64 589.452 64 590.009ZM64 546L64 550.998C64 551.544 64.452 552 65.009 552L66.991 552C67.557 552 68 551.551 68 550.998L68 546 76 546 76 550.998C76 551.544 76.452 552 77.009 552L78.991 552C79.557 552 80 551.551 80 550.998L80 546 88 546 88 550.998C88 551.544 88.452 552 89.009 552L90.991 552C91.557 552 92 551.551 92 550.998L92 546 96 546C98.205 546 100 547.794 100 550.007L100 559 56 559 56 550.007C56 547.794 57.791 546 60 546L64 546ZM76 546L76 540.991C76 540.444 76.443 540 77.009 540L78.991 540C79.548 540 80 540.451 80 540.991L80 546 76 546ZM88 546L88 540.991C88 540.444 88.443 540 89.009 540L90.991 540C91.548 540 92 540.451 92 540.991L92 546 88 546ZM64 546L64 540.991C64 540.444 64.443 540 65.009 540L66.991 540C67.548 540 68 540.451 68 540.991L68 546 64 546ZM124 549L124 567 116 567 116 553 114 553 114 565.993C114 566.55 113.548 567 112.991 567L111.009 567C110.443 567 110 566.552 110 565.999L110 551C110 549.895 110.895 549 112 549L124 549ZM122 596.464L122 599.009C122 599.549 121.548 600 120.991 600L119.009 600C118.443 600 118 599.556 118 599.009L118 596.465C116.804 595.773 116 594.48 116 593.002L116 570 124 570 124 593.002C124 594.481 123.194 595.772 122 596.464L122 596.464ZM116 546L116 542C116 540.895 116.895 540 118 540L122 540C123.105 540 124 540.895 124 542L124 546 116 546Z" transform="translate(-56 -540)" data-fill-palette-color="accent"></path></svg></g></svg></g></svg></g></svg></g></svg></g></svg></g><defs></defs></svg><rect width="95.481" height="84.24794117647059" fill="none" stroke="none" visibility="hidden"></rect></g></svg></g></svg>